<?xml version="1.0" standalone="no"?>
<!DOCTYPE svg PUBLIC "-//W3C//DTD SVG 20010904//EN"
 "http://www.w3.org/TR/2001/REC-SVG-20010904/DTD/svg10.dtd">
<svg version="1.0" xmlns="http://www.w3.org/2000/svg"
 width="700.000000pt" height="700.000000pt" viewBox="0 0 700.000000 700.000000"
 preserveAspectRatio="xMidYMid meet">
<metadata>
Created by potrace 1.14, written by Peter Selinger 2001-2017
</metadata>
<g transform="translate(0.000000,700.000000) scale(0.100000,-0.100000)"
fill="#000000" stroke="none">
<path d="M3144 6798 c-192 -110 -367 -210 -389 -222 -22 -13 -101 -58 -175
-101 -74 -43 -160 -91 -190 -108 -30 -16 -59 -33 -65 -37 -5 -4 -26 -17 -45
-27 -19 -11 -116 -66 -215 -123 -99 -57 -199 -114 -223 -127 -23 -13 -93 -53
-154 -89 -61 -35 -112 -64 -113 -64 -1 0 -42 -23 -91 -51 -49 -29 -183 -106
-299 -172 -247 -141 -251 -143 -335 -192 -36 -21 -90 -51 -120 -68 -30 -17
-107 -61 -170 -98 l-115 -67 -2 -1749 -2 -1749 62 -36 c34 -20 79 -45 99 -57
21 -11 54 -30 74 -42 20 -11 114 -64 208 -118 94 -55 187 -108 206 -118 19
-11 175 -100 345 -198 171 -98 330 -189 355 -203 25 -14 88 -50 140 -80 52
-30 298 -171 545 -312 248 -142 466 -267 485 -278 19 -11 146 -83 281 -161
136 -77 253 -141 261 -141 8 0 18 4 23 9 8 7 504 293 686 395 48 27 1001 573
1077 617 15 9 47 27 72 41 25 14 303 173 618 353 l572 328 -2 1751 -3 1751
-230 133 c-126 73 -237 136 -245 139 -13 6 -131 73 -180 102 -24 15 -437 252
-506 291 -64 36 -276 157 -306 175 -9 6 -34 20 -55 31 -21 12 -125 72 -232
133 -106 61 -197 111 -202 111 -5 0 -9 5 -9 10 0 6 -4 10 -9 10 -9 0 -379 209
-441 249 -14 8 -27 16 -30 16 -3 0 -36 19 -75 42 -38 22 -151 87 -250 143 -99
56 -196 112 -215 124 -19 12 -42 25 -51 28 -9 4 -152 -72 -365 -194z m1561
-1345 c4 -21 7 -40 7 -43 0 -3 4 -15 9 -28 5 -12 11 -33 13 -45 15 -69 42
-186 111 -477 91 -382 135 -571 135 -580 0 -4 -668 -6 -1485 -6 -817 0 -1485
2 -1485 5 0 3 9 42 19 86 18 72 138 589 146 625 11 50 61 264 87 373 l30 127
1203 0 1203 0 7 -37z m-435 -1373 c0 -3 -24 -68 -53 -145 -30 -77 -87 -227
-126 -332 l-73 -193 6 -77 c4 -43 8 -91 11 -108 2 -16 6 -66 10 -110 3 -44 8
-96 10 -115 2 -19 7 -60 9 -90 8 -77 15 -152 21 -210 3 -27 2 -50 -2 -51 -24
-3 -1151 -4 -1165 -1 -11 3 -15 12 -13 30 2 15 6 56 10 92 3 36 8 76 10 90 2
14 7 59 10 100 3 41 7 86 10 100 2 14 6 51 9 83 4 31 9 83 13 115 18 149 17
152 -119 497 -69 176 -124 322 -123 325 4 7 1545 7 1545 0z m1118 -517 c218
-163 399 -298 401 -299 2 -2 -52 -99 -120 -216 -67 -117 -132 -229 -143 -250
-12 -20 -36 -62 -55 -95 -19 -32 -42 -73 -53 -91 -10 -18 -58 -102 -106 -185
-49 -84 -131 -226 -184 -317 -147 -256 -235 -409 -333 -579 l-90 -156 -218 -3
-218 -2 -42 38 c-23 22 -71 65 -107 98 -36 32 -70 63 -76 69 -6 5 -48 44 -94
85 -46 41 -110 100 -143 130 l-59 56 0 122 c0 115 1 124 23 142 21 19 224 211
424 402 l91 87 0 398 c-1 360 1 399 16 413 29 26 39 33 228 153 102 65 246
158 320 207 74 49 136 89 138 89 1 1 181 -133 400 -296z m-3305 245 c37 -24
79 -50 93 -58 13 -8 141 -89 283 -180 l259 -164 0 -404 0 -403 55 -52 c71 -68
323 -306 413 -391 l71 -66 0 -122 c0 -113 -1 -123 -22 -142 -12 -12 -71 -67
-131 -123 -60 -56 -120 -111 -134 -123 -14 -12 -52 -47 -85 -78 -33 -31 -80
-75 -105 -97 l-45 -40 -219 0 -220 0 -68 115 c-38 63 -73 125 -78 138 -5 12
-26 47 -45 77 -19 31 -35 57 -35 59 0 4 -75 136 -100 176 -5 8 -46 80 -92 159
-46 79 -93 160 -104 180 -40 68 -387 666 -406 701 -27 47 -126 218 -149 256
l-19 32 72 53 c40 30 78 57 83 62 39 32 649 477 653 477 3 0 37 -19 75 -42z"/>
</g>
</svg>
