<svg version="1.1" id="Layer_1" xmlns="http://www.w3.org/2000/svg" x="0" y="0" viewBox="0 0 80 50" style="enable-background:new 0 0 80 50" xml:space="preserve"><style>.st0{fill:#00a8e1}</style><path class="st0" d="M1.15 29.2a.851.851 0 0 1-.59-.2.792.792 0 0 1-.18-.6V8a.792.792 0 0 1 .18-.6.85.85 0 0 1 .58-.17h2.22a.79.79 0 0 1 .86.67l.22.8a6.8 6.8 0 0 1 2.22-1.43 7.111 7.111 0 0 1 2.66-.52A5.71 5.71 0 0 1 14 8.93a9.19 9.19 0 0 1 1.74 5.89 10.708 10.708 0 0 1-.86 4.45 7 7 0 0 1-2.33 2.93 5.763 5.763 0 0 1-3.38 1 7.18 7.18 0 0 1-2.4-.4 5.766 5.766 0 0 1-1.93-1.1v6.72a.84.84 0 0 1-.17.6.84.84 0 0 1-.6.17l-2.92.01zm6.73-9.36a2.882 2.882 0 0 0 2.53-1.17 6.542 6.542 0 0 0 .81-3.67 6.71 6.71 0 0 0-.8-3.71 2.87 2.87 0 0 0-2.55-1.17 5.848 5.848 0 0 0-3 .83V19c.9.56 1.94.854 3 .85l.01-.01zM19.54 22.88a.66.66 0 0 1-.77-.77V8a.792.792 0 0 1 .18-.6.85.85 0 0 1 .58-.17h2.21a.79.79 0 0 1 .86.67l.4 1.64a8.768 8.768 0 0 1 2.32-1.92 5 5 0 0 1 2.32-.57h.43a.9.9 0 0 1 .61.17c.14.167.205.384.18.6v2.58a.84.84 0 0 1-.17.58.792.792 0 0 1-.6.18H26.68a9.135 9.135 0 0 0-1.72.2c-.59.109-1.166.28-1.72.51v10.25a.85.85 0 0 1-.17.58.792.792 0 0 1-.6.18h-2.93zM33.29 4.79a2.668 2.668 0 0 1-1.87-.64 2.251 2.251 0 0 1-.71-1.75 2.25 2.25 0 0 1 .71-1.76 3.001 3.001 0 0 1 3.75 0c.482.451.741 1.091.71 1.75a2.251 2.251 0 0 1-.71 1.75 2.668 2.668 0 0 1-1.88.65zm-1.47 18.1a.66.66 0 0 1-.77-.77V8a.792.792 0 0 1 .18-.6.85.85 0 0 1 .58-.17h2.95a.84.84 0 0 1 .6.17.84.84 0 0 1 .17.6v14.12a.84.84 0 0 1-.17.58.792.792 0 0 1-.6.18l-2.94.01zM40.1 22.88a.66.66 0 0 1-.77-.77V8a.792.792 0 0 1 .18-.6.85.85 0 0 1 .58-.17h2.21a.79.79 0 0 1 .86.67l.25.83a13.277 13.277 0 0 1 2.93-1.52A8.277 8.277 0 0 1 49 6.75a4.13 4.13 0 0 1 3.9 2 12.575 12.575 0 0 1 2.95-1.5 8.994 8.994 0 0 1 2.86-.46 4.48 4.48 0 0 1 3.33 1.2 4.551 4.551 0 0 1 1.18 3.34v10.79a.85.85 0 0 1-.17.58.792.792 0 0 1-.6.18h-2.91a.66.66 0 0 1-.77-.77v-9.84c0-1.393-.623-2.09-1.87-2.09a7.79 7.79 0 0 0-3.35.8v11.14a.84.84 0 0 1-.17.58.792.792 0 0 1-.6.18h-2.94a.66.66 0 0 1-.77-.77v-9.84c0-1.393-.623-2.09-1.87-2.09a7.488 7.488 0 0 0-3.38.83v11.1a.85.85 0 0 1-.17.58.792.792 0 0 1-.6.18l-2.95.01zM73.92 23.34a7.818 7.818 0 0 1-5.85-2.09 8.19 8.19 0 0 1-2-6A8.887 8.887 0 0 1 68.11 9a7.5 7.5 0 0 1 5.81-2.27 6.66 6.66 0 0 1 4.47 1.38 4.6 4.6 0 0 1 1.61 3.7 3.942 3.942 0 0 1-1.74 3.48 9.109 9.109 0 0 1-5.11 1.18 12.126 12.126 0 0 1-3-.34 4.158 4.158 0 0 0 1.24 2.94 4.904 4.904 0 0 0 3.21.89c.558 0 1.116-.037 1.67-.11a20.967 20.967 0 0 0 2.26-.48H78.86c.347 0 .52.237.52.71v1.41a1.27 1.27 0 0 1-.14.69c-.142.167-.33.288-.54.35-1.53.563-3.15.838-4.78.81zm-1-9.63a4.183 4.183 0 0 0 2.27-.48c.478-.327.748-.882.71-1.46 0-1.287-.767-1.93-2.3-1.93-1.967 0-3.103 1.207-3.41 3.62.893.171 1.801.255 2.71.25h.02zM72.31 40.11C63.55 46.57 50.85 50 39.92 50A58.66 58.66 0 0 1 .35 34.93c-.82-.74-.09-1.75.9-1.18a79.715 79.715 0 0 0 39.59 10.49A78.852 78.852 0 0 0 71 38.07c1.52-.63 2.76.93 1.31 2.04z"/><path class="st0" d="M76 36c-1.12-1.43-7.4-.68-10.23-.34-.86.1-1-.64-.22-1.18 5-3.52 13.23-2.5 14.18-1.32s-.25 9.41-5 13.34c-.72.6-1.41.28-1.09-.52 1.07-2.69 3.44-8.59 2.36-9.98z"/></svg>
